ModelForces
version=1
nRows=4
nColumns=155
inDegrees=no

This file contains the forces exerted on a model during a simulation.

A force is a generalized force, meaning that it can be either a force (N) or a torque (Nm).

Units are S.I. units (second, meters, Newtons, ...)
Angles are in degrees.

endheader
time	glut_med1_r	glut_med2_r	glut_med3_r	glut_min1_r	glut_min2_r	glut_min3_r	semimem_r	semiten_r	bifemlh_r	bifemsh_r	sar_r	add_long_r	add_brev_r	add_mag1_r	add_mag2_r	add_mag3_r	tfl_r	pect_r	grac_r	glut_max1_r	glut_max2_r	glut_max3_r	iliacus_r	psoas_r	quad_fem_r	gem_r	peri_r	rect_fem_r	vas_med_r	vas_int_r	vas_lat_r	med_gas_r	lat_gas_r	soleus_r	tib_post_r	flex_dig_r	flex_hal_r	tib_ant_r	per_brev_r	per_long_r	per_tert_r	ext_dig_r	ext_hal_r	glut_med1_l	glut_med2_l	glut_med3_l	glut_min1_l	glut_min2_l	glut_min3_l	semimem_l	semiten_l	bifemlh_l	bifemsh_l	sar_l	add_long_l	add_brev_l	add_mag1_l	add_mag2_l	add_mag3_l	tfl_l	pect_l	grac_l	glut_max1_l	glut_max2_l	glut_max3_l	iliacus_l	psoas_l	quad_fem_l	gem_l	peri_l	rect_fem_l	vas_med_l	vas_int_l	vas_lat_l	med_gas_l	lat_gas_l	soleus_l	tib_post_l	flex_dig_l	flex_hal_l	tib_ant_l	per_brev_l	per_long_l	per_tert_l	ext_dig_l	ext_hal_l	ercspn_r	ercspn_l	intobl_r	intobl_l	extobl_r	extobl_l	femur_lat_meniscii_r.femur_lat_r.force.X	femur_lat_meniscii_r.femur_lat_r.force.Y	femur_lat_meniscii_r.femur_lat_r.force.Z	femur_lat_meniscii_r.femur_lat_r.torque.X	femur_lat_meniscii_r.femur_lat_r.torque.Y	femur_lat_meniscii_r.femur_lat_r.torque.Z	femur_lat_meniscii_r.meniscus_lat_r.force.X	femur_lat_meniscii_r.meniscus_lat_r.force.Y	femur_lat_meniscii_r.meniscus_lat_r.force.Z	femur_lat_meniscii_r.meniscus_lat_r.torque.X	femur_lat_meniscii_r.meniscus_lat_r.torque.Y	femur_lat_meniscii_r.meniscus_lat_r.torque.Z	femur_med_meniscii_r.femur_med_r.force.X	femur_med_meniscii_r.femur_med_r.force.Y	femur_med_meniscii_r.femur_med_r.force.Z	femur_med_meniscii_r.femur_med_r.torque.X	femur_med_meniscii_r.femur_med_r.torque.Y	femur_med_meniscii_r.femur_med_r.torque.Z	femur_med_meniscii_r.meniscus_med_r.force.X	femur_med_meniscii_r.meniscus_med_r.force.Y	femur_med_meniscii_r.meniscus_med_r.force.Z	femur_med_meniscii_r.meniscus_med_r.torque.X	femur_med_meniscii_r.meniscus_med_r.torque.Y	femur_med_meniscii_r.meniscus_med_r.torque.Z	femur_med_tibia_r.tibia_upper_r.force.X	femur_med_tibia_r.tibia_upper_r.force.Y	femur_med_tibia_r.tibia_upper_r.force.Z	femur_med_tibia_r.tibia_upper_r.torque.X	femur_med_tibia_r.tibia_upper_r.torque.Y	femur_med_tibia_r.tibia_upper_r.torque.Z	femur_med_tibia_r.femur_med_r.force.X	femur_med_tibia_r.femur_med_r.force.Y	femur_med_tibia_r.femur_med_r.force.Z	femur_med_tibia_r.femur_med_r.torque.X	femur_med_tibia_r.femur_med_r.torque.Y	femur_med_tibia_r.femur_med_r.torque.Z	femur_lat_tibia_r.tibia_upper_r.force.X	femur_lat_tibia_r.tibia_upper_r.force.Y	femur_lat_tibia_r.tibia_upper_r.force.Z	femur_lat_tibia_r.tibia_upper_r.torque.X	femur_lat_tibia_r.tibia_upper_r.torque.Y	femur_lat_tibia_r.tibia_upper_r.torque.Z	femur_lat_tibia_r.femur_lat_r.force.X	femur_lat_tibia_r.femur_lat_r.force.Y	femur_lat_tibia_r.femur_lat_r.force.Z	femur_lat_tibia_r.femur_lat_r.torque.X	femur_lat_tibia_r.femur_lat_r.torque.Y	femur_lat_tibia_r.femur_lat_r.torque.Z	aACL_R	pACL_R	aPCL_R	pPCL_R	aMCL_R	mMCL_R	pMCL_R	aLCL_R	mLCL_R	pLCL_R	aPCL_L	pPCL_L	aMCL_L	aLCL_L
      0.10912676	      9.38225227	     11.26416298	     12.14827743	      5.14093153	      5.89365211	      6.54497807	    114.39062866	    167.77365313	    228.66530718	    364.34448252	    126.05361501	     11.24928639	      7.95803513	      0.00000000	      4.83224440	      8.45828718	      5.04312296	      3.18637673	    100.14577147	      7.28199006	     11.08987558	      8.36866615	     32.96894403	     24.71027867	      7.03320029	      4.55067957	      4.29316257	     38.58725201	      0.00000000	      0.00000000	      0.00000000	     25.65613261	      0.66894716	      0.00000000	      0.00000000	      1.84974785	      0.00000000	     29.95916898	      3.13141202	      4.18023945	      4.91469526	     17.25065310	      5.38879495	      9.38225227	     11.26416298	     12.14827743	      5.14093153	      5.89365211	      6.54497807	      0.00000000	      8.48929972	     14.90637436	     14.16212319	      2.92940389	     11.24928639	      7.95803513	      0.00000000	      4.83224440	      8.45828718	      6.83317856	      3.18637673	      3.03904272	      7.28199006	     11.08987558	      8.36866615	     32.96894403	     24.71027867	      7.03320029	      4.55067957	      4.29316257	     23.36156594	      0.00000000	      0.00000000	      0.00000000	     16.59998465	      8.55404792	     58.13350334	     57.64485949	      7.79175449	      7.17826896	     16.78986043	      9.43268229	     21.76147602	      3.81444029	     11.68126823	      3.94732489	     48.42032732	     48.42032732	     18.38188719	     18.38188719	     35.32309141	     35.32309141	     48.37613366	    260.59605111	     40.38405315	    -22.91235307	      1.25148764	     18.89371301	    -48.37613366	   -260.59605111	    -40.38405315	      8.02439913	     -1.76544217	      2.25711521	    -27.74344991	     56.82375653	      7.11145182	     -1.57280780	      0.65470534	    -11.35550946	     27.74344991	    -56.82375653	     -7.11145182	     -1.02577479	     -0.66853411	      1.32832447	    -94.53089478	   -506.34957975	    115.30295562	    -12.01467532	      2.39780318	      0.69759810	     94.53089478	    506.34957975	   -115.30295562	     57.16612216	     -1.42232269	     40.60351844	    -39.23853538	   -148.84286224	    -37.88307529	      5.08052825	     -1.41122963	      0.28171187	     39.23853538	    148.84286224	     37.88307529	    -19.24864987	      0.94209074	     16.23659642	      9.17206317	    -12.39983767	      0.00000000	     58.60232323	      0.00000000	      0.00000000	    -37.74501712	      0.00000000	      0.00000000	      0.00000000	      0.00000000	      0.00000000	      0.00000001	      0.00000000
      0.11017170	     10.05292561	     11.18644219	     12.06460039	      5.10664763	      5.85585911	      6.50710517	    113.87400705	    167.47170665	    225.77080250	    361.62256712	    126.13165710	     11.17059875	      7.90544043	      0.00000000	      4.81069767	      8.39777809	      5.04440077	      3.68336125	    100.06668623	      7.23185194	     11.01256371	      8.30959053	     32.82317251	     24.54429065	      7.00114537	      4.52676949	      4.46636284	     38.37324586	      0.00000000	      0.00000000	      0.00000000	     27.96378986	      0.65261858	      0.00000000	      0.00000000	      1.45176022	      0.00000000	     29.84796340	      3.50322536	      4.38611472	      8.80489670	     17.46120256	      5.36008976	     10.05292561	     11.18644219	     12.06460039	      5.10664763	      5.85585911	      6.50710517	      0.00000000	      8.42767904	     14.89156454	     14.06562320	      2.90995603	     11.17059875	      7.90544043	      0.00000000	      4.81069767	      8.39777809	      6.79744955	      3.68336125	      3.01853172	      7.23185194	     11.01256371	      8.30959053	     32.82317251	     24.54429065	      7.00114537	      4.52676949	      4.46636284	     23.21082825	      0.00000000	      0.00000000	      0.00000000	     16.94517692	      8.68129382	     58.15459752	     57.52867789	      7.68795625	      7.06750702	     16.75311998	      9.38773409	     21.71259823	      3.78910119	     11.77325318	      3.97199719	     48.09674935	     48.09674935	     18.25073663	     18.25073663	     35.20230310	     35.20230310	     46.79686860	    263.45849174	     39.61820158	    -22.66392238	      1.19797801	     18.18336330	    -46.79686860	   -263.45849174	    -39.61820158	      8.06366665	     -1.70535567	      2.43643187	    -26.79035643	     57.46657115	      7.85899200	     -1.86152550	      0.62832470	    -10.96574850	     26.79035643	    -57.46657115	     -7.85899200	     -1.02391085	     -0.65418638	      1.31874979	   -101.07411513	   -508.84271582	    115.08742050	    -12.04813705	      2.52102373	      0.59323971	    101.07411513	    508.84271582	   -115.08742050	     57.10215980	     -1.53850610	     43.31896545	    -38.02957240	   -141.01524568	    -35.37982874	      4.77912589	     -1.35943987	      0.28002080	     38.02957240	    141.01524568	     35.37982874	    -18.01285252	      0.91413875	     15.71969519	      8.45745829	    -12.81576220	     26.92190159	     60.37600167	      0.00000000	      0.00000000	    -38.59935830	      0.00000000	      0.00000000	      0.00000000	      0.00000000	      0.00000000	      0.00000001	      0.00000000
      0.11123213	     10.61827295	     11.10866602	     11.98073578	      5.07235317	      5.81806030	      6.46842740	    113.19444473	    166.98358887	    222.39194172	    357.25188820	    125.97575134	     11.09190061	      7.85282696	      0.00000000	      4.78773736	      8.33710045	      5.03282348	      3.93027841	     99.79858758	      7.18162120	     10.93522955	      8.25050510	     32.67742349	     24.37831343	      6.96594786	      4.50284273	      4.62913938	     38.11989933	      0.00000000	      0.00000000	      0.00000000	     30.36829591	      0.62522830	      0.00000000	      0.00000000	      1.06846106	      0.00000000	     29.23835402	      3.89739347	      4.60893062	      7.45201279	     17.59195575	      5.33302935	     10.61827295	     11.10866602	     11.98073578	      5.07235317	      5.81806030	      6.46842740	      0.00000000	      8.36604955	     14.87356305	     13.96910381	      2.89050171	     11.09190061	      7.85282696	      0.00000000	      4.78773736	      8.33710045	      6.76155236	      3.93027841	      2.99801555	      7.18162120	     10.93522955	      8.25050510	     32.67742349	     24.37831343	      6.96594786	      4.50284273	      4.62913938	     23.05849574	      0.00000000	      0.00000000	      0.00000000	     17.27532168	      8.80279823	     58.15873350	     57.40882697	      7.58594424	      6.95877174	     16.71237557	      9.34152040	     21.66134966	      3.76374524	     11.85272484	      3.99006209	     47.77307459	     47.77307459	     18.11956542	     18.11956542	     35.08154778	     35.08154778	     53.00928958	    277.16344588	     37.54214462	    -22.12230402	      1.32760348	     20.68578285	    -53.00928958	   -277.16344588	    -37.54214462	      8.33360296	     -1.83098943	      2.50014433	    -25.61036984	     58.97035243	      8.31357956	     -2.00696878	      0.59857396	    -10.47168285	     25.61036984	    -58.97035243	     -8.31357956	     -1.05139163	     -0.63400456	      1.30157919	   -114.30334403	   -534.55237448	    122.07502091	    -12.71518500	      2.81511996	      0.44534611	    114.30334403	    534.55237448	   -122.07502091	     60.47489802	     -1.76193355	     48.88561581	    -39.83384067	   -139.68660182	    -34.90189291	      4.71567798	     -1.40398878	      0.23695777	     39.83384067	    139.68660182	     34.90189291	    -17.77486755	      0.95523969	     16.46362386	      7.71073794	    -13.28353127	     24.50882772	     56.42052342	      0.00000000	      0.00000000	      0.00000000	      0.00000000	      0.00000000	      0.00000000	      0.00000000	      0.00000000	      0.00000001	      0.00000000
      0.11229256	     11.08817095	     11.03198424	     11.89793960	      5.03855228	      5.78081130	      6.42957480	    112.67384166	    166.78617901	    219.25556774	    354.81154480	    126.15041948	     11.01434887	      7.80096822	      0.00000000	      4.76384801	      8.27715794	      5.02174221	      4.04788681	     99.79155186	      7.13204860	     10.85901212	      8.19227899	     32.53383888	     24.21478661	      6.92872561	      4.47925286	      4.77989551	     38.06489179	      0.00000000	      0.00000000	      0.00000000	     32.96401359	      0.61968092	      0.00000000	      0.00000000	      0.71197834	      0.00000000	     29.88659260	      4.30454152	      4.84332678	     10.94966680	     17.77518793	      5.29936599	     11.08817095	     11.03198424	     11.89793960	      5.03855228	      5.78081130	      6.42957480	      0.00000000	      8.30531725	     14.85265598	     13.87398386	      2.87132692	     11.01434887	      7.80096822	      0.00000000	      4.76384801	      8.27715794	      6.72602397	      4.04788681	      2.97779583	      7.13204860	     10.85901212	      8.19227899	     32.53383888	     24.21478661	      6.92872561	      4.47925286	      4.77989551	     22.90689210	      0.00000000	      0.00000000	      0.00000000	     17.58624838	      8.91699219	     58.15204770	     57.28712916	      7.48736132	      6.85386460	     16.66832524	      9.29476306	     21.60849357	      3.73874685	     11.91770371	      4.00125333	     47.45406128	     47.45406128	     17.99030227	     17.99030227	     34.96259977	     34.96259977	     55.14069093	    267.24216477	     36.42237635	    -21.39650686	      1.39357394	     21.60259783	    -55.14069093	   -267.24216477	    -36.42237635	      8.00585763	     -1.89430755	      2.34385682	    -22.72218867	     57.11421528	      9.47404816	     -2.53585712	      0.52443494	     -9.27840337	     22.72218867	    -57.11421528	     -9.47404816	     -0.97207698	     -0.58052221	      1.20323228	   -127.37088835	   -553.56675769	    126.01547452	    -13.16328466	      3.08517096	      0.27424632	    127.37088835	    553.56675769	   -126.01547452	     62.45035360	     -1.98928025	     54.35703171	    -40.18869489	   -137.66509867	    -34.57401859	      4.64398701	     -1.41592171	      0.24080929	     40.18869489	    137.66509867	     34.57401859	    -17.58721749	      0.96491696	     16.60013593	      8.71982629	    -12.09734194	     25.70125827	     60.36004161	      0.00000000	      0.00000000	      0.00000000	      0.00000000	      0.00000000	      0.00000000	      0.00000000	      0.00000000	      0.00000001	      0.00000000
